<?xml version="1.0" encoding="utf-8"?>
<!-- Generator: Adobe Illustrator 19.0.0, SVG Export Plug-In . SVG Version: 6.00 Build 0)  -->
<svg version="1.1" id="Icons" xmlns="http://www.w3.org/2000/svg" xmlns:xlink="http://www.w3.org/1999/xlink" x="0px" y="0px"
	 viewBox="-607 369 64 64" style="enable-background:new -607 369 64 64;" xml:space="preserve">
<style type="text/css">
	.st0{fill:#FFFFFF;}
</style>
<g id="cogwheels">
	<g>
		<path class="st0" d="M-585,400c-5,0-9,4-9,9s4,9,9,9c5,0,9-4,9-9S-580,400-585,400z M-585,417c-4.4,0-8-3.6-8-8s3.6-8,8-8
			c4.4,0,8,3.6,8,8S-580.6,417-585,417z"/>
		<path class="st0" d="M-584,393c0.1,0,0.2,0.1,0.2,0.2l0.6,3c0,0.1,0,0.2,0,0.3l0.1,0.7l0.7,0.1c1.3,0.3,2.6,0.8,3.8,1.6l0.6,0.4
			l0.5-0.4l0.1,0c0.1,0,0.1-0.1,0.2-0.1l2.6-1.7c0,0,0.1,0,0.1,0c0.1,0,0.2,0,0.2,0l1.4,1.4c0.1,0.1,0.1,0.2,0,0.3l-1.7,2.6
			c0,0.1-0.1,0.1-0.2,0.2l-0.4,0.6l0.4,0.6c0.7,1.2,1.3,2.4,1.6,3.8l0.1,0.7l0.7,0.1l0,0v0c0.1,0,0.2,0,0.2,0l3,0.6
			c0.1,0,0.2,0.1,0.2,0.2v2c0,0.1-0.1,0.2-0.2,0.2l-3,0.6c-0.1,0-0.1,0-0.2,0l0,0l0,0l-0.7,0.1l-0.1,0.7c-0.3,1.3-0.8,2.6-1.6,3.8
			l-0.4,0.6l0.4,0.6c0.1,0.1,0.1,0.1,0.1,0.2l1.7,2.6c0,0.1,0,0.2,0,0.3l-1.4,1.4c0,0-0.1,0-0.2,0c-0.1,0-0.1,0-0.1,0l-2.6-1.7
			c-0.1,0-0.1-0.1-0.2-0.2l-0.6-0.4l-0.6,0.4c-1.2,0.7-2.4,1.3-3.8,1.6l-0.7,0.2l-0.1,0.7c0,0.1,0,0.2,0,0.2l-0.6,3
			c0,0.1-0.1,0.2-0.2,0.2h-2c-0.1,0-0.2-0.1-0.2-0.2l-0.6-3c0-0.1,0-0.1,0-0.2l0-0.1l-0.1-0.7l-0.7-0.1c-1.3-0.3-2.6-0.8-3.8-1.6
			l-0.6-0.4l-0.5,0.4l-0.1,0c-0.1,0-0.1,0.1-0.2,0.1l-2.6,1.7c0,0-0.1,0-0.1,0c-0.1,0-0.1,0-0.2-0.1l-1.4-1.4
			c-0.1-0.1-0.1-0.2,0-0.3l1.7-2.6c0-0.1,0.1-0.1,0.1-0.2l0-0.1l0.4-0.6l-0.4-0.6c-0.7-1.2-1.3-2.4-1.6-3.8l-0.1-0.7l-0.7-0.1
			l-0.1,0c-0.1,0-0.1,0-0.2,0l-3-0.6c-0.1,0-0.2-0.1-0.2-0.2v-2c0-0.1,0.1-0.2,0.2-0.2l3-0.6c0.1,0,0.1,0,0.2,0l0.1,0l0.7-0.1
			l0.1-0.7c0.3-1.3,0.8-2.6,1.6-3.8l0.4-0.6l-0.4-0.5l0-0.1c0-0.1-0.1-0.1-0.1-0.2l-1.7-2.6c0-0.1,0-0.2,0-0.3l1.4-1.4
			c0,0,0.1,0,0.2,0c0.1,0,0.1,0,0.1,0l2.6,1.7c0.1,0,0.1,0.1,0.2,0.1l0.1,0l0.5,0.4l0.6-0.4c1.2-0.7,2.4-1.3,3.8-1.6l0.7-0.1
			l0.1-0.7l0-0.1c0-0.1,0-0.1,0-0.2l0.6-3c0-0.1,0.1-0.2,0.2-0.2L-584,393L-584,393z M-584,392h-2c-0.5,0-1.1,0.4-1.2,1l-0.6,3
			c0,0.1,0,0.2-0.1,0.3c-1.5,0.3-2.8,0.9-4.1,1.7c-0.1-0.1-0.2-0.1-0.3-0.2l-2.6-1.7c-0.2-0.1-0.4-0.2-0.7-0.2
			c-0.3,0-0.6,0.1-0.9,0.3l-1.4,1.4c-0.4,0.4-0.5,1.1-0.2,1.5l1.7,2.6c0.1,0.1,0.1,0.2,0.2,0.3c-0.8,1.2-1.4,2.6-1.7,4.1
			c-0.1,0-0.2,0-0.3,0.1l-3,0.6c-0.5,0.1-1,0.6-1,1.2v2c0,0.5,0.4,1.1,1,1.2l3,0.6c0.1,0,0.2,0,0.3,0.1c0.3,1.5,0.9,2.8,1.7,4.1
			c-0.1,0.1-0.1,0.2-0.2,0.3l-1.7,2.6c-0.3,0.5-0.2,1.1,0.2,1.5l1.4,1.4c0.2,0.2,0.6,0.3,0.9,0.3c0.2,0,0.5-0.1,0.7-0.2l2.6-1.7
			c0.1-0.1,0.2-0.1,0.3-0.2c1.2,0.8,2.6,1.4,4.1,1.7c0,0.1,0,0.2,0.1,0.3l0.6,3c0.1,0.5,0.6,1,1.2,1h2c0.5,0,1.1-0.4,1.2-1l0.6-3
			c0-0.1,0-0.2,0.1-0.3c1.5-0.3,2.8-0.9,4.1-1.7c0.1,0.1,0.2,0.1,0.3,0.2l2.6,1.7c0.2,0.1,0.4,0.2,0.7,0.2c0.3,0,0.7-0.1,0.9-0.3
			l1.4-1.4c0.4-0.4,0.5-1.1,0.2-1.5l-1.7-2.6c-0.1-0.1-0.1-0.2-0.2-0.3c0.8-1.2,1.4-2.6,1.7-4.1c0.1,0,0.2,0,0.3-0.1l3-0.6
			c0.5-0.1,1-0.6,1-1.2v-2c0-0.6-0.4-1.1-1-1.2l-3-0.6c-0.1,0-0.2,0-0.3-0.1c-0.3-1.5-0.9-2.8-1.7-4.1c0.1-0.1,0.1-0.2,0.2-0.3
			l1.7-2.6c0.3-0.5,0.2-1.1-0.2-1.5l-1.4-1.4c-0.2-0.2-0.6-0.3-0.9-0.3c-0.2,0-0.5,0.1-0.7,0.2l-2.6,1.7c-0.1,0.1-0.2,0.1-0.3,0.2
			c-1.2-0.8-2.6-1.4-4.1-1.7c0-0.1,0-0.2-0.1-0.3l-0.6-3C-582.9,392.4-583.5,392-584,392L-584,392z"/>
		<path class="st0" d="M-585,404.9c-2.2,0-4,1.8-4,4.1c0,2.2,1.8,4.1,4,4.1s4-1.8,4-4.1C-581,406.8-582.8,404.9-585,404.9z
			 M-585,412c-1.7,0-3-1.3-3-3s1.3-3,3-3s3,1.3,3,3S-583.3,412-585,412z"/>
		<path class="st0" d="M-549.6,385.4l-3.1,0c-0.1,0-0.3,0-0.4,0c-0.3-0.6-0.7-1.2-1.1-1.7c0.1-0.1,0.1-0.3,0.2-0.4l1.2-2.9
			c0.2-0.5,0-1.2-0.4-1.5l-1.7-1.1c-0.3-0.2-0.6-0.2-0.9-0.2c-0.2,0-0.5,0.2-0.6,0.3l-2.2,2.2c-0.1,0.1-0.2,0.2-0.3,0.3
			c-0.6-0.2-1.3-0.3-2-0.4c0-0.1-0.1-0.3-0.1-0.4l-1.2-2.9c-0.2-0.5-0.8-0.8-1.4-0.7l-2,0.4c-0.5,0.1-1,0.6-1,1.2l0,3.1
			c0,0.1,0,0.3,0,0.4c-0.6,0.3-1.2,0.7-1.7,1.1c-0.1-0.1-0.3-0.1-0.4-0.2l-2.9-1.2c-0.2-0.1-0.5-0.1-0.7-0.1
			c-0.3,0.1-0.6,0.2-0.8,0.5l-1.1,1.7c-0.3,0.5-0.2,1.1,0.1,1.5l2.2,2.2c0.1,0.1,0.2,0.2,0.3,0.3c-0.2,0.6-0.3,1.3-0.4,2
			c-0.1,0-0.3,0.1-0.4,0.1l-2.9,1.2c-0.5,0.2-0.8,0.8-0.7,1.4l0.4,2c0.1,0.5,0.6,1,1.2,1l3.1,0c0.1,0,0.3,0,0.4,0
			c0.3,0.6,0.7,1.2,1.1,1.7c-0.1,0.1-0.1,0.3-0.2,0.4l-1.2,2.9c-0.2,0.5,0,1.2,0.4,1.5l1.7,1.1c0.3,0.2,0.6,0.2,0.9,0.2
			c0.2,0,0.4-0.2,0.6-0.3l2.2-2.2c0.1-0.1,0.2-0.2,0.3-0.3c0.6,0.2,1.3,0.3,2,0.4c0,0.1,0.1,0.3,0.1,0.4l1.2,2.9
			c0.2,0.5,0.8,0.8,1.4,0.7l2-0.4c0.5-0.1,1-0.6,1-1.2l0-3.1c0-0.1,0-0.3,0-0.4c0.6-0.3,1.2-0.7,1.7-1.1c0.1,0.1,0.3,0.1,0.4,0.2
			l2.9,1.2c0.2,0.1,0.5,0.1,0.7,0.1c0.3-0.1,0.6-0.2,0.8-0.5l1.1-1.7c0.3-0.5,0.2-1.1-0.1-1.5l-2.2-2.2c-0.1-0.1-0.2-0.2-0.3-0.3
			c0.2-0.6,0.3-1.3,0.4-2c0.1,0,0.3-0.1,0.4-0.1l2.9-1.2c0.5-0.2,0.8-0.8,0.7-1.4l-0.4-2C-548.6,385.8-549.1,385.4-549.6,385.4z
			 M-549,388.5c0,0.1-0.1,0.2-0.1,0.2l-2.9,1.2c-0.1,0-0.2,0.1-0.3,0.1l-0.6,0.2l-0.1,0.6c-0.1,0.6-0.2,1.2-0.4,1.8l-0.2,0.6
			l0.5,0.4c0.1,0.1,0.2,0.2,0.3,0.2l2.2,2.2c0.1,0.1,0.1,0.2,0,0.3l-1.1,1.7c0,0-0.1,0.1-0.2,0.1c-0.1,0-0.1,0-0.1,0l-2.9-1.2
			c-0.1,0-0.2-0.1-0.3-0.1l-0.6-0.3l-0.5,0.4c-0.5,0.4-1,0.7-1.5,1l-0.6,0.3l0,0.6c0,0.1,0,0.3,0,0.4l0,3.1c0,0.1-0.1,0.2-0.2,0.2
			l-2,0.4c-0.1,0-0.2-0.1-0.2-0.1l-1.2-2.9c0-0.1-0.1-0.2-0.1-0.3l-0.2-0.6l-0.6-0.1c-0.6-0.1-1.2-0.2-1.8-0.4l-0.6-0.2l-0.4,0.5
			c-0.1,0.1-0.2,0.2-0.2,0.3l-2.2,2.2c0,0,0,0-0.1,0c-0.1,0-0.2,0-0.2,0l-1.7-1.1c-0.1,0-0.1-0.2-0.1-0.3l1.2-2.9
			c0-0.1,0.1-0.2,0.1-0.3l0.3-0.6l-0.4-0.5c-0.4-0.5-0.7-1-1-1.5l-0.3-0.6l-0.6,0c-0.1,0-0.2,0-0.4,0l-3.1,0c-0.1,0-0.2-0.1-0.2-0.2
			l-0.4-2c0-0.1,0.1-0.2,0.1-0.2l2.9-1.2c0.1,0,0.2-0.1,0.3-0.1l0.6-0.2l0.1-0.6c0.1-0.6,0.2-1.2,0.4-1.8l0.2-0.6l-0.5-0.4
			c-0.1-0.1-0.2-0.2-0.3-0.2l-2.2-2.2c-0.1-0.1-0.1-0.2,0-0.3l1.1-1.7c0,0,0.1-0.1,0.2-0.1c0.1,0,0.1,0,0.1,0l2.9,1.2
			c0.1,0,0.2,0.1,0.3,0.1l0.6,0.3l0.5-0.4c0.5-0.4,1-0.7,1.5-1l0.6-0.3l0-0.6c0-0.1,0-0.3,0-0.4l0-3.1c0-0.1,0.1-0.2,0.2-0.2l2-0.4
			c0.1,0,0.2,0.1,0.2,0.1l1.2,2.9c0,0.1,0.1,0.2,0.1,0.3l0.2,0.6l0.6,0.1c0.6,0.1,1.2,0.2,1.8,0.4l0.6,0.2l0.4-0.5
			c0.1-0.1,0.2-0.2,0.2-0.3l2.2-2.2c0,0,0,0,0.1,0c0.1,0,0.2,0,0.2,0l1.7,1.1c0.1,0,0.1,0.2,0.1,0.3l-1.2,2.9c0,0.1-0.1,0.2-0.1,0.3
			l-0.3,0.6l0.4,0.5c0.4,0.5,0.7,1,1,1.5l0.3,0.6l0.6,0c0.1,0,0.2,0,0.4,0l3.1,0c0.1,0,0.2,0.1,0.2,0.2L-549,388.5z"/>
		<path class="st0" d="M-562.8,386.1c-2.2,0.4-3.6,2.5-3.2,4.7c0.4,2.2,2.5,3.6,4.7,3.2c2.2-0.4,3.6-2.5,3.2-4.7
			C-558.5,387.1-560.6,385.7-562.8,386.1z M-561.4,392.9c-1.6,0.3-3.2-0.7-3.5-2.4c-0.3-1.6,0.7-3.2,2.4-3.5
			c1.6-0.3,3.2,0.7,3.5,2.4C-558.7,391.1-559.8,392.6-561.4,392.9z"/>
		<path class="st0" d="M-567,385.1c-2.7,2.7-2.7,7.2,0,9.9c2.7,2.7,7.2,2.7,9.9,0c2.7-2.7,2.7-7.2,0-9.9
			C-559.8,382.3-564.2,382.3-567,385.1z M-557.8,394.2c-2.3,2.3-6.1,2.3-8.5,0c-2.3-2.3-2.3-6.1,0-8.5c2.3-2.3,6.1-2.3,8.5,0
			C-555.4,388.1-555.4,391.9-557.8,394.2z"/>
		<path class="st0" d="M-549.3,418.7c0.5-0.1,1.1-0.5,1.1-1.1v0c0.1-0.5-0.2-1.1-0.7-1.3c0,0-0.1,0-0.1,0l-2-0.8
			c-0.1,0-0.1,0-0.2-0.1c-0.1-0.9-0.3-1.8-0.6-2.6c0,0,0.1-0.1,0.1-0.1l1.3-1.6c0.4-0.4,0.4-1.1,0-1.6h0c-0.1-0.1-0.2-0.3-0.4-0.3
			c-0.3-0.2-0.8-0.2-1.1-0.1l-2,0.8c0,0-0.1,0.1-0.2,0.1c-0.4-0.4-0.9-0.7-1.4-1c-0.3-0.2-0.6-0.3-0.9-0.4c0-0.1,0-0.1,0-0.2
			l-0.2-2.1c0-0.4-0.3-0.8-0.7-1c-0.1-0.1-0.2-0.1-0.4-0.1h0c-0.5-0.1-1.2,0.3-1.4,0.8l-0.8,2c0,0,0,0.1-0.1,0.2
			c-0.9,0.1-1.8,0.3-2.6,0.6c0,0-0.1-0.1-0.1-0.1l-1.6-1.3c-0.1,0-0.1-0.1-0.2-0.1c-0.4-0.2-1-0.2-1.4,0.1v0c-0.4,0.3-0.6,1-0.4,1.5
			l0.8,2c0,0,0,0.1,0.1,0.2c-0.4,0.4-0.7,0.9-1,1.4c-0.2,0.3-0.3,0.6-0.4,0.9c-0.1,0-0.1,0-0.2,0l-2.1,0.2c-0.5,0.1-1.1,0.5-1.1,1.1
			h0c-0.1,0.5,0.2,1.1,0.7,1.3c0,0,0.1,0,0.1,0l2,0.8c0,0,0.1,0,0.2,0.1c0.1,0.9,0.3,1.8,0.6,2.6c0,0-0.1,0.1-0.1,0.1l-1.3,1.6
			c-0.3,0.4-0.4,1.1,0,1.6h0c0.1,0.1,0.2,0.3,0.4,0.3c0.3,0.2,0.8,0.2,1.1,0.1l2-0.8c0,0,0.1,0,0.2-0.1c0.4,0.4,0.9,0.7,1.4,1
			c0.3,0.2,0.6,0.3,0.9,0.4c0,0.1,0,0.1,0,0.2l0.2,2.1c0,0.4,0.3,0.8,0.7,1c0.1,0.1,0.2,0.1,0.4,0.1l0,0c0.5,0.1,1.2-0.3,1.4-0.8
			l0.8-2c0-0.1,0-0.1,0.1-0.2c0.9-0.1,1.8-0.3,2.6-0.6c0,0,0.1,0.1,0.1,0.1l1.6,1.3c0.1,0,0.1,0.1,0.2,0.1c0.4,0.2,1,0.2,1.4-0.1h0
			c0.4-0.3,0.6-1,0.4-1.5l-0.8-2c0,0-0.1-0.1-0.1-0.2c0.4-0.4,0.7-0.9,1-1.4c0.2-0.3,0.3-0.6,0.4-0.9c0.1,0,0.1,0,0.2,0
			L-549.3,418.7z M-551.5,417.9L-551.5,417.9l-0.1,0l-0.6,0l-0.2,0.6c-0.1,0.3-0.2,0.6-0.4,0.8c-0.2,0.4-0.5,0.8-0.8,1.2l-0.4,0.5
			l0.3,0.6l0,0.1l0,0l0.8,2c0,0.1,0,0.3-0.1,0.3l0,0c-0.1,0-0.2,0.1-0.3,0l0,0l-1.6-1.3l0,0l-0.1-0.1l-0.5-0.4l-0.6,0.3
			c-0.7,0.3-1.5,0.5-2.2,0.6l-0.6,0.1l-0.2,0.6l0,0.1l0,0.1l-0.8,2c0,0.1-0.2,0.2-0.3,0.2c0,0,0,0-0.1,0c-0.1-0.1-0.2-0.2-0.2-0.2
			l-0.2-2.1l0-0.1l0-0.1l0-0.6l-0.6-0.2c-0.3-0.1-0.6-0.2-0.8-0.4c-0.4-0.2-0.8-0.5-1.2-0.8l-0.5-0.4l-0.6,0.3l0,0l0,0l-0.1,0
			l-2,0.8c0,0-0.2,0-0.3,0c0,0-0.1,0-0.1-0.1l0,0c0-0.1,0-0.3,0-0.3l1.3-1.6l0,0l0.1-0.1l0.4-0.5l-0.3-0.6c-0.3-0.7-0.5-1.5-0.6-2.2
			l0-0.6l-0.6-0.2l-0.1,0l0,0l-2-0.8c-0.1-0.1-0.2-0.2-0.2-0.3c0-0.1,0.2-0.2,0.3-0.2l2.1-0.2l0.1,0l0.1,0l0.6,0l0.2-0.6
			c0.1-0.3,0.2-0.6,0.4-0.8c0.2-0.4,0.5-0.8,0.8-1.2l0.4-0.5l-0.3-0.6l0-0.1l0-0.1l-0.8-2c0-0.1,0-0.3,0.1-0.3l0,0
			c0.1,0,0.2,0,0.3,0l0,0l1.6,1.3l0,0l0.1,0.1l0.5,0.4l0.6-0.3c0.7-0.3,1.5-0.5,2.2-0.6l0.6,0l0.2-0.6l0-0.1l0,0l0.8-2
			c0-0.1,0.2-0.2,0.3-0.2l0,0c0,0,0,0,0,0c0.1,0.1,0.2,0.2,0.2,0.2l0.2,2.1l0,0.1l0,0.1l0,0.6l0.6,0.2c0.3,0.1,0.6,0.2,0.8,0.4
			c0.4,0.2,0.8,0.5,1.2,0.8l0.5,0.4l0.6-0.3l0.1,0l0.1,0l2-0.8c0,0,0.2,0,0.3,0c0,0,0.1,0,0.1,0.1c0.1,0.1,0,0.3,0,0.3l-1.3,1.6l0,0
			l-0.1,0.1l-0.4,0.5l0.3,0.6c0.3,0.7,0.5,1.5,0.6,2.2l0,0.6l0.6,0.2l0.1,0l0,0l2,0.8c0.1,0.1,0.2,0.2,0.2,0.3
			c0,0.1-0.2,0.2-0.3,0.2L-551.5,417.9z"/>
		<path class="st0" d="M-557.3,412.9c-1.7-0.9-3.8-0.3-4.7,1.4c-0.9,1.7-0.3,3.8,1.4,4.7c1.7,0.9,3.8,0.3,4.7-1.4
			C-555,416-555.6,413.9-557.3,412.9z M-560.2,418.2c-1.2-0.7-1.7-2.2-1-3.4c0.7-1.2,2.2-1.7,3.4-1c1.2,0.7,1.7,2.2,1,3.4
			C-557.5,418.4-559,418.9-560.2,418.2z"/>
	</g>
</g>
</svg>
