<?xml version="1.0" encoding="utf-8"?>
<!-- Generator: Adobe Illustrator 19.0.0, SVG Export Plug-In . SVG Version: 6.00 Build 0)  -->
<svg version="1.1" id="Layer_1" xmlns="http://www.w3.org/2000/svg" xmlns:xlink="http://www.w3.org/1999/xlink" x="0px" y="0px"
	 viewBox="-539 301 200 200" style="enable-background:new -539 301 200 200;" xml:space="preserve">
<style type="text/css">
	.st0{fill:none;stroke:#8CC63F;stroke-width:3;stroke-miterlimit:10;}
	.st1{fill:#8CC63F;}
</style>
<circle id="XMLID_10_" class="st0" cx="-170.1" cy="376" r="84.9"/>
<g id="XMLID_2_">
	<path id="XMLID_25_" class="st1" d="M-963.8,70.9l7.3-3.1c1-0.4,1.7-1.4,1.8-2.5c0.5-6.9,0.4-31.1-24-36c0,0-4.5,24.7,13.3,41.3
		C-965,71-964.4,71.1-963.8,70.9z"/>
	<path id="XMLID_44_" class="st1" d="M-970.6,71.1c-4.6-5.8-22.7-25.2-56.3-19.5c0,0,5.5,31.1,43.8,30.1c1.2,0,2.3-0.4,3.2-1.1
		l8.9-6.7C-970.1,73.3-969.9,72-970.6,71.1z"/>
	<path id="XMLID_28_" class="st1" d="M-977.8,85.7c4.3-4.2,18.2-15.2,46.6-19.3c1.1-0.2,2.1,0.7,2.1,1.8v0.5c0,0.9-0.6,1.6-1.4,1.8
		c-6.2,1.4-30.6,7.7-43.3,19.2c-0.8,0.7-1.9,0.7-2.7,0l-1.2-1C-978.6,88-978.6,86.6-977.8,85.7z"/>
	<path id="XMLID_54_" class="st1" d="M-986.1,89.3c-13.5-6.2-30.3,1.6-37.5,17.4c-7.2,15.8-2.2,33.6,11.3,39.8
		c13.5,6.2,30.3-1.6,37.5-17.4S-972.6,95.5-986.1,89.3z M-1010.5,107c0,0-1-8.8,11.9-10.9l-2.2,1.3c-3.6,2.1-6.7,5.1-9,8.6
		L-1010.5,107z"/>
	<path id="XMLID_56_" class="st1" d="M-914,103.3c-6-16.3-22.2-25.3-36.1-20.2c-13.9,5.2-20.2,22.6-14.2,38.9
		c6.1,16.3,22.2,25.3,36.1,20.2C-914.3,137-907.9,119.6-914,103.3z M-956.6,111.2c0,0-6.2-6.2,0-15l-0.6,3.5c-0.5,2.7-0.5,5.4,0,8.1
		L-956.6,111.2z"/>
</g>
<circle id="XMLID_7_" class="st0" cx="-803.9" cy="376" r="84.9"/>
<g id="XMLID_1_">
	<path id="XMLID_21_" class="st1" d="M-358.3,235.8c0,0-47.3-23.6,0-75.7c0,0,35,38.8,5.7,69c0,0-10.3-24.6-7.5-37.8
		C-360.1,191.4-369.7,196.1-358.3,235.8z"/>
	<path id="XMLID_26_" class="st1" d="M-346.2,237.9c0,0,9.5-71.9,95.5-12.3c0,0-30.5,53.9-85.1,26.5c0,0-10.4,28.8-18,22.9
		c0,0-18.7-3.3,21.5-37.5c0,0,13.9-14,46.5-13.8C-285.7,223.7-321.6,209.6-346.2,237.9z"/>
</g>
<circle id="XMLID_9_" class="st0" cx="-438.5" cy="401" r="95"/>
<path id="XMLID_20_" class="st1" d="M-693.2,231.7c0-3.7-3-6.7-6.7-6.7c-3.7,0-6.7,3-6.7,6.7l0.1,34.6l20.5,24.4V301h20.5v-20.1
	c0-1.7-0.5-3.3-1.5-4.6c-2.9-4.2-10.1-13.8-21-24.4c-1.4-1.3-3.3-2-5.3-1.7c-1.4,0.2-2.9,1-3.4,3.1c-0.6,2,0.1,4.2,1.6,5.7
	l13.5,13.5c0.5,0.5,0.9,1,1.2,1.6c0.7,1.3,1.2,3.3-2.7,2.5c-0.7-0.1-1.3-0.4-1.7-0.9l-13.7-12.9c-0.6-0.6-1.1-1.2-1.5-2
	c-1.6-3.3-4.6-12.1,6-15.3L-693.2,231.7z"/>
<path id="XMLID_29_" class="st1" d="M-617.9,231.7c0-3.7,3-6.7,6.7-6.7s6.7,3,6.7,6.7l-0.1,34.6l-20.5,24.4V301h-20.5v-20.1
	c0-1.7,0.5-3.3,1.5-4.6c2.9-4.2,10.1-13.8,21-24.4c1.4-1.3,3.3-2,5.3-1.7c1.4,0.2,2.9,1,3.4,3.1c0.6,2-0.1,4.2-1.6,5.7l-13.5,13.5
	c-0.5,0.5-0.9,1-1.2,1.6c-0.7,1.3-1.2,3.3,2.7,2.5c0.7-0.1,1.3-0.4,1.7-0.9l13.7-12.9c0.6-0.6,1.1-1.2,1.5-2
	c1.6-3.3,4.6-12.1-6-15.3L-617.9,231.7z"/>
<polygon id="XMLID_22_" class="st1" points="-655.5,239.3 -676.8,218.1 -655.5,210.2 -634.3,218.1 "/>
<polygon id="XMLID_30_" class="st1" points="-657.6,271.2 -677.4,255.7 -677.4,222.7 -657.6,243.1 "/>
<polygon id="XMLID_32_" class="st1" points="-653.7,271.2 -633.9,255.7 -633.9,223.4 -653.7,243.1 "/>
<g>
	<path class="st1" d="M-470.4,338.1v62.2c0,0-0.9,3.7,5.5,4.6c3.3,0.5,6.5,0.5,8.9,0.3c2.2-0.1,3.9-1.9,3.9-4.1v-63.5
		c0-1.5-0.9-2.8-2.3-3.3c-2.9-1-8.1-2.4-12.8-0.8C-469.1,334.2-470.4,336.1-470.4,338.1z"/>
	<path class="st1" d="M-447.4,331.2l0,68.7c0,0-0.9,4,5.5,5.1c3.3,0.5,6.5,0.5,8.9,0.4c2.2-0.1,3.9-2.1,3.9-4.5v-70.2
		c0-1.6-0.9-3.1-2.3-3.6c-2.9-1.1-8.1-2.6-12.8-0.8C-446.1,326.9-447.4,328.9-447.4,331.2z"/>
	<path class="st1" d="M-424.3,339.3v62.2c0,0-0.9,3.7,5.5,4.6c3.3,0.5,6.5,0.5,8.9,0.3c2.2-0.1,3.9-1.9,3.9-4.1v-63.5
		c0-1.5-0.9-2.8-2.3-3.3c-2.9-1-8.1-2.4-12.8-0.8C-423,335.4-424.3,337.2-424.3,339.3z"/>
	<path class="st1" d="M-470.4,474.2V412c0,0-0.9-3.7,5.5-4.6c3.3-0.5,6.5-0.5,8.9-0.3c2.2,0.1,3.9,1.9,3.9,4.1v63.5
		c0,1.5-0.9,2.8-2.3,3.3c-2.9,1-8.1,2.4-12.8,0.8C-469.1,478.1-470.4,476.2-470.4,474.2z"/>
	<path class="st1" d="M-447.4,480.8l0-68.7c0,0-0.9-4,5.5-5.1c3.3-0.5,6.5-0.5,8.9-0.4c2.2,0.1,3.9,2.1,3.9,4.5v70.2
		c0,1.6-0.9,3.1-2.3,3.6c-2.9,1.1-8.1,2.6-12.8,0.8C-446.1,485.1-447.4,483.1-447.4,480.8z"/>
	<path class="st1" d="M-424.3,475.3v-62.2c0,0-0.9-3.7,5.5-4.6c3.3-0.5,6.5-0.5,8.9-0.3c2.2,0.1,3.9,1.9,3.9,4.1v63.5
		c0,1.5-0.9,2.8-2.3,3.3c-2.9,1-8.1,2.4-12.8,0.8C-423,479.2-424.3,477.4-424.3,475.3z"/>
	<path class="st1" d="M-403.2,405.4c0,0-6.7-17.9,25-26.5C-378.2,378.9-377.3,410-403.2,405.4z"/>
	<path class="st1" d="M-404.3,390.5c0,0-1.8-8,6.6-11.9C-397.7,378.6-397.4,392.6-404.3,390.5z"/>
	<path class="st1" d="M-472.1,395.3c0,0,1.8-8-6.6-11.9C-478.7,383.4-478.9,397.4-472.1,395.3z"/>
	<path class="st1" d="M-473.4,406.7c0,0,4.7-12.4-17.4-18.5C-490.8,388.2-491.4,409.9-473.4,406.7z"/>
</g>
</svg>
