<?xml version="1.0" encoding="utf-8"?>
<!-- Generator: Adobe Illustrator 19.0.0, SVG Export Plug-In . SVG Version: 6.00 Build 0)  -->
<svg version="1.1" id="Layer_1" xmlns="http://www.w3.org/2000/svg" xmlns:xlink="http://www.w3.org/1999/xlink" x="0px" y="0px"
	 viewBox="0 0 200 200" style="enable-background:new 0 0 200 200;" xml:space="preserve">
<style type="text/css">
	.st0{fill:none;stroke:#8CC63F;stroke-width:3;stroke-miterlimit:10;}
	.st1{fill:#8CC63F;}
</style>
<circle id="XMLID_10_" class="st0" cx="368.9" cy="75" r="84.9"/>
<g id="XMLID_2_">
	<path id="XMLID_25_" class="st1" d="M105.5,81.9l7.3-3.1c1-0.4,1.7-1.4,1.8-2.5c0.5-6.9,0.4-31.1-24-36c0,0-4.5,24.7,13.3,41.3
		C104.3,82,104.9,82.1,105.5,81.9z"/>
	<path id="XMLID_44_" class="st1" d="M98.7,82.1C94.1,76.3,76,56.9,42.4,62.6c0,0,5.5,31.1,43.8,30.1c1.2,0,2.3-0.4,3.2-1.1l8.9-6.7
		C99.2,84.3,99.4,83,98.7,82.1z"/>
	<path id="XMLID_28_" class="st1" d="M91.5,96.7c4.3-4.2,18.2-15.2,46.6-19.3c1.1-0.2,2.1,0.7,2.1,1.8v0.5c0,0.9-0.6,1.6-1.4,1.8
		c-6.2,1.4-30.6,7.7-43.3,19.2c-0.8,0.7-1.9,0.7-2.7,0l-1.2-1C90.7,99,90.7,97.6,91.5,96.7z"/>
	<path id="XMLID_54_" class="st1" d="M83.2,100.3c-13.5-6.2-30.3,1.6-37.5,17.4s-2.2,33.6,11.3,39.8c13.5,6.2,30.3-1.6,37.5-17.4
		S96.7,106.5,83.2,100.3z M58.8,118c0,0-1-8.8,11.9-10.9l-2.2,1.3c-3.6,2.1-6.7,5.1-9,8.6L58.8,118z"/>
	<path id="XMLID_56_" class="st1" d="M155.3,114.3C149.3,98,133.1,89,119.2,94.1C105.3,99.3,99,116.7,105,133
		c6.1,16.3,22.2,25.3,36.1,20.2C155,148,161.4,130.6,155.3,114.3z M112.7,122.2c0,0-6.2-6.2,0-15l-0.6,3.5c-0.5,2.7-0.5,5.4,0,8.1
		L112.7,122.2z"/>
</g>
<circle id="XMLID_7_" class="st0" cx="-264.9" cy="75" r="84.9"/>
<g id="XMLID_1_">
	<path id="XMLID_21_" class="st1" d="M180.7-65.2c0,0-47.3-23.6,0-75.7c0,0,35,38.8,5.7,69c0,0-10.3-24.6-7.5-37.8
		C178.9-109.6,169.3-104.9,180.7-65.2z"/>
	<path id="XMLID_26_" class="st1" d="M192.8-63.1c0,0,9.5-71.9,95.5-12.3c0,0-30.5,53.9-85.1,26.5c0,0-10.4,28.8-18,22.9
		c0,0-18.7-3.3,21.5-37.5c0,0,13.9-14,46.5-13.8C253.3-77.3,217.4-91.4,192.8-63.1z"/>
</g>
<circle id="XMLID_9_" class="st0" cx="100" cy="100" r="95"/>
<path id="XMLID_20_" class="st1" d="M-154.2-69.3c0-3.7-3-6.7-6.7-6.7c-3.7,0-6.7,3-6.7,6.7l0.1,34.6l20.5,24.4V0h20.5v-20.1
	c0-1.7-0.5-3.3-1.5-4.6c-2.9-4.2-10.1-13.8-21-24.4c-1.4-1.3-3.3-2-5.3-1.7c-1.4,0.2-2.9,1-3.4,3.1c-0.6,2,0.1,4.2,1.6,5.7
	l13.5,13.5c0.5,0.5,0.9,1,1.2,1.6c0.7,1.3,1.2,3.3-2.7,2.5c-0.7-0.1-1.3-0.4-1.7-0.9l-13.7-12.9c-0.6-0.6-1.1-1.2-1.5-2
	c-1.6-3.3-4.6-12.1,6-15.3L-154.2-69.3z"/>
<path id="XMLID_29_" class="st1" d="M-78.9-69.3c0-3.7,3-6.7,6.7-6.7c3.7,0,6.7,3,6.7,6.7l-0.1,34.6l-20.5,24.4V0l-20.5,0v-20.1
	c0-1.7,0.5-3.3,1.5-4.6c2.9-4.2,10.1-13.8,21-24.4c1.4-1.3,3.3-2,5.3-1.7c1.4,0.2,2.9,1,3.4,3.1c0.6,2-0.1,4.2-1.6,5.7l-13.5,13.5
	c-0.5,0.5-0.9,1-1.2,1.6c-0.7,1.3-1.2,3.3,2.7,2.5c0.7-0.1,1.3-0.4,1.7-0.9l13.7-12.9c0.6-0.6,1.1-1.2,1.5-2
	c1.6-3.3,4.6-12.1-6-15.3L-78.9-69.3z"/>
<polygon id="XMLID_22_" class="st1" points="-116.5,-61.7 -137.8,-82.9 -116.5,-90.8 -95.3,-82.9 "/>
<polygon id="XMLID_30_" class="st1" points="-118.6,-29.8 -138.4,-45.3 -138.4,-78.3 -118.6,-57.9 "/>
<polygon id="XMLID_32_" class="st1" points="-114.7,-29.8 -94.9,-45.3 -94.9,-77.6 -114.7,-57.9 "/>
</svg>
