<?xml version="1.0" encoding="utf-8"?>
<!-- Generator: Adobe Illustrator 19.0.0, SVG Export Plug-In . SVG Version: 6.00 Build 0)  -->
<svg version="1.1" id="Layer_1" xmlns="http://www.w3.org/2000/svg" xmlns:xlink="http://www.w3.org/1999/xlink" x="0px" y="0px"
	 viewBox="0 0 200 200" style="enable-background:new 0 0 200 200;" xml:space="preserve">
<style type="text/css">
	.st0{fill:none;stroke:#8CC63F;stroke-width:3;stroke-miterlimit:10;}
	.st1{fill:#8CC63F;}
</style>
<g id="XMLID_18_">
	<circle id="XMLID_10_" class="st0" cx="368.9" cy="75" r="84.9"/>
	<path id="XMLID_25_" class="st1" d="M374.5,62.7l5.4-2.3c0.8-0.3,1.3-1,1.3-1.9c0.4-5.1,0.3-23.1-17.8-26.7c0,0-3.4,18.4,9.8,30.7
		C373.6,62.8,374.1,62.9,374.5,62.7z"/>
	<path id="XMLID_44_" class="st1" d="M369.5,62.9c-3.4-4.3-16.9-18.8-41.8-14.5c0,0,4.1,23.1,32.5,22.4c0.9,0,1.7-0.3,2.4-0.8l6.6-5
		C369.9,64.5,370,63.5,369.5,62.9z"/>
	<path id="XMLID_28_" class="st1" d="M364.2,73.7c3.2-3.1,13.6-11.3,34.6-14.3c0.8-0.1,1.6,0.5,1.6,1.4v0.4c0,0.6-0.4,1.2-1.1,1.3
		c-4.6,1.1-22.8,5.7-32.2,14.3c-0.6,0.5-1.4,0.5-2,0l-0.9-0.8C363.5,75.4,363.5,74.4,364.2,73.7z"/>
	<path id="XMLID_54_" class="st1" d="M358,76.4c-10-4.6-22.5,1.2-27.9,12.9s-1.6,25,8.4,29.6c10,4.6,22.5-1.2,27.9-12.9
		C371.7,94.2,368,81,358,76.4z M339.9,89.6c0,0-0.8-6.5,8.9-8.1l-1.7,1c-2.7,1.6-5,3.8-6.7,6.4L339.9,89.6z"/>
	<path id="XMLID_56_" class="st1" d="M411.6,86.8c-4.5-12.1-16.5-18.8-26.8-15s-15.1,16.8-10.6,28.9c4.5,12.1,16.5,18.8,26.8,15
		C411.4,111.8,416.1,98.9,411.6,86.8z M379.9,92.6c0,0-4.6-4.6,0-11.2l-0.4,2.6c-0.3,2-0.3,4,0,6L379.9,92.6z"/>
</g>
<circle id="XMLID_7_" class="st0" cx="-264.9" cy="75" r="84.9"/>
<g id="XMLID_1_">
	<path id="XMLID_21_" class="st1" d="M60.7,117.8c0,0-47.3-23.6,0-75.7c0,0,35,38.8,5.7,69c0,0-10.3-24.6-7.5-37.8
		C58.9,73.4,49.3,78.1,60.7,117.8z"/>
	<path id="XMLID_26_" class="st1" d="M72.8,119.9c0,0,9.5-71.9,95.5-12.3c0,0-30.5,53.9-85.1,26.5c0,0-10.4,28.8-18,22.9
		c0,0-18.7-3.3,21.5-37.5c0,0,13.9-14,46.5-13.8C133.3,105.7,97.4,91.6,72.8,119.9z"/>
</g>
<circle id="XMLID_9_" class="st0" cx="100" cy="100" r="95"/>
<path id="XMLID_20_" class="st1" d="M-154.2-69.3c0-3.7-3-6.7-6.7-6.7c-3.7,0-6.7,3-6.7,6.7l0.1,34.6l20.5,24.4V0h20.5v-20.1
	c0-1.7-0.5-3.3-1.5-4.6c-2.9-4.2-10.1-13.8-21-24.4c-1.4-1.3-3.3-2-5.3-1.7c-1.4,0.2-2.9,1-3.4,3.1c-0.6,2,0.1,4.2,1.6,5.7
	l13.5,13.5c0.5,0.5,0.9,1,1.2,1.6c0.7,1.3,1.2,3.3-2.7,2.5c-0.7-0.1-1.3-0.4-1.7-0.9l-13.7-12.9c-0.6-0.6-1.1-1.2-1.5-2
	c-1.6-3.3-4.6-12.1,6-15.3L-154.2-69.3z"/>
<path id="XMLID_29_" class="st1" d="M-78.9-69.3c0-3.7,3-6.7,6.7-6.7c3.7,0,6.7,3,6.7,6.7l-0.1,34.6l-20.5,24.4V0l-20.5,0v-20.1
	c0-1.7,0.5-3.3,1.5-4.6c2.9-4.2,10.1-13.8,21-24.4c1.4-1.3,3.3-2,5.3-1.7c1.4,0.2,2.9,1,3.4,3.1c0.6,2-0.1,4.2-1.6,5.7l-13.5,13.5
	c-0.5,0.5-0.9,1-1.2,1.6c-0.7,1.3-1.2,3.3,2.7,2.5c0.7-0.1,1.3-0.4,1.7-0.9l13.7-12.9c0.6-0.6,1.1-1.2,1.5-2
	c1.6-3.3,4.6-12.1-6-15.3L-78.9-69.3z"/>
<polygon id="XMLID_22_" class="st1" points="-116.5,-61.7 -137.8,-82.9 -116.5,-90.8 -95.3,-82.9 "/>
<polygon id="XMLID_30_" class="st1" points="-118.6,-29.8 -138.4,-45.3 -138.4,-78.3 -118.6,-57.9 "/>
<polygon id="XMLID_32_" class="st1" points="-114.7,-29.8 -94.9,-45.3 -94.9,-77.6 -114.7,-57.9 "/>
</svg>
