<?xml version="1.0" encoding="utf-8"?>
<!-- Generator: Adobe Illustrator 19.0.0, SVG Export Plug-In . SVG Version: 6.00 Build 0)  -->
<svg version="1.1" id="Layer_1" xmlns="http://www.w3.org/2000/svg" xmlns:xlink="http://www.w3.org/1999/xlink" x="0px" y="0px"
	 viewBox="0 0 200 200" style="enable-background:new 0 0 200 200;" xml:space="preserve">
<style type="text/css">
	.st0{fill:none;stroke:#8CC63F;stroke-width:3;stroke-miterlimit:10;}
	.st1{fill:#8CC63F;}
</style>
<g id="XMLID_18_">
	<circle id="XMLID_10_" class="st0" cx="368.9" cy="75" r="84.9"/>
	<path id="XMLID_25_" class="st1" d="M374.5,62.7l5.4-2.3c0.8-0.3,1.3-1,1.3-1.9c0.4-5.1,0.3-23.1-17.8-26.7c0,0-3.4,18.4,9.8,30.7
		C373.6,62.8,374.1,62.9,374.5,62.7z"/>
	<path id="XMLID_44_" class="st1" d="M369.5,62.9c-3.4-4.3-16.9-18.8-41.8-14.5c0,0,4.1,23.1,32.5,22.4c0.9,0,1.7-0.3,2.4-0.8l6.6-5
		C369.9,64.5,370,63.5,369.5,62.9z"/>
	<path id="XMLID_28_" class="st1" d="M364.2,73.7c3.2-3.1,13.6-11.3,34.6-14.3c0.8-0.1,1.6,0.5,1.6,1.4v0.4c0,0.6-0.4,1.2-1.1,1.3
		c-4.6,1.1-22.8,5.7-32.2,14.3c-0.6,0.5-1.4,0.5-2,0l-0.9-0.8C363.5,75.4,363.5,74.4,364.2,73.7z"/>
	<path id="XMLID_54_" class="st1" d="M358,76.4c-10-4.6-22.5,1.2-27.9,12.9s-1.6,25,8.4,29.6c10,4.6,22.5-1.2,27.9-12.9
		C371.7,94.2,368,81,358,76.4z M339.9,89.6c0,0-0.8-6.5,8.9-8.1l-1.7,1c-2.7,1.6-5,3.8-6.7,6.4L339.9,89.6z"/>
	<path id="XMLID_56_" class="st1" d="M411.6,86.8c-4.5-12.1-16.5-18.8-26.8-15s-15.1,16.8-10.6,28.9c4.5,12.1,16.5,18.8,26.8,15
		C411.4,111.8,416.1,98.9,411.6,86.8z M379.9,92.6c0,0-4.6-4.6,0-11.2l-0.4,2.6c-0.3,2-0.3,4,0,6L379.9,92.6z"/>
</g>
<g id="XMLID_34_">
	<circle id="XMLID_7_" class="st0" cx="-264.9" cy="75" r="84.9"/>
	<path id="XMLID_21_" class="st1" d="M-290.6,88.8c0,0-39.1-19.5,0-62.5c0,0,28.9,32,4.7,57c0,0-8.5-20.3-6.2-31.2
		C-292.1,52.1-300,56-290.6,88.8z"/>
	<path id="XMLID_26_" class="st1" d="M-280.6,90.6c0,0,7.8-59.4,78.9-10.2c0,0-25.2,44.5-70.3,21.9c0,0-8.6,23.8-14.8,18.9
		c0,0-15.4-2.7,17.8-31c0,0,11.5-11.6,38.5-11.4C-230.6,78.8-260.3,67.1-280.6,90.6z"/>
</g>
<circle id="XMLID_9_" class="st0" cx="100" cy="100" r="95"/>
<path id="XMLID_20_" class="st1" d="M51.2,67.2c0-5-4-9-8.9-9s-9,4-9,9l0.1,46.2l27.4,32.7v13.8h27.4V133c0-2.2-0.7-4.4-2-6.2
	c-3.9-5.6-13.6-18.5-28.1-32.5c-1.9-1.8-4.5-2.7-7-2.2c-1.9,0.3-3.8,1.4-4.6,4.1c-0.7,2.7,0.1,5.7,2.1,7.7l18.1,18.1
	c0.7,0.7,1.2,1.4,1.7,2.2c1,1.8,1.6,4.4-3.6,3.3c-0.9-0.2-1.7-0.6-2.3-1.2L44.4,109c-0.8-0.8-1.5-1.7-1.9-2.7
	c-2.1-4.4-6.2-16.2,8.1-20.4L51.2,67.2z"/>
<path id="XMLID_29_" class="st1" d="M151.8,67.2c0-5,4-9,8.9-9c5,0,9,4,9,9l-0.1,46.2l-27.4,32.7v13.8h-27.4V133
	c0-2.2,0.7-4.4,2-6.2c3.9-5.6,13.6-18.5,28.1-32.5c1.9-1.8,4.5-2.7,7-2.2c1.9,0.3,3.8,1.4,4.6,4.1c0.7,2.7-0.1,5.7-2.1,7.7
	l-18.1,18.1c-0.7,0.7-1.2,1.4-1.7,2.2c-1,1.8-1.6,4.4,3.6,3.3c0.9-0.2,1.7-0.6,2.3-1.2l18.3-17.2c0.8-0.8,1.5-1.7,1.9-2.7
	c2.1-4.4,6.2-16.2-8.1-20.4L151.8,67.2z"/>
<polygon id="XMLID_22_" class="st1" points="101.5,77.5 73.1,49.1 101.5,38.6 129.9,49.1 "/>
<polygon id="XMLID_30_" class="st1" points="98.7,120 72.3,99.3 72.3,55.2 98.7,82.5 "/>
<polygon id="XMLID_32_" class="st1" points="103.9,120 130.4,99.3 130.4,56.2 103.9,82.5 "/>
</svg>
