<?xml version="1.0" encoding="utf-8"?>
<!-- Generator: Adobe Illustrator 19.0.0, SVG Export Plug-In . SVG Version: 6.00 Build 0)  -->
<svg version="1.1" id="Layer_1" xmlns="http://www.w3.org/2000/svg" xmlns:xlink="http://www.w3.org/1999/xlink" x="0px" y="0px"
	 viewBox="-539 301 200 200" style="enable-background:new -539 301 200 200;" xml:space="preserve">
<style type="text/css">
	.st0{fill:none;stroke:#8CC63F;stroke-width:3;stroke-miterlimit:10;}
	.st1{fill:#8CC63F;}
	.st2{font-family:'SegoeUI-Bold';}
	.st3{font-size:143px;}
	.st4{font-family:'SegoeUI-Light';}
	.st5{font-size:43px;}
</style>
<circle id="XMLID_10_" class="st0" cx="-709.1" cy="677" r="84.9"/>
<g id="XMLID_2_">
	<path id="XMLID_25_" class="st1" d="M-1502.8,371.9l7.3-3.1c1-0.4,1.7-1.4,1.8-2.5c0.5-6.9,0.4-31.1-24-36c0,0-4.5,24.7,13.3,41.3
		C-1504,372-1503.4,372.1-1502.8,371.9z"/>
	<path id="XMLID_44_" class="st1" d="M-1509.6,372.1c-4.6-5.8-22.7-25.2-56.3-19.5c0,0,5.5,31.1,43.8,30.1c1.2,0,2.3-0.4,3.2-1.1
		l8.9-6.7C-1509.1,374.3-1508.9,373-1509.6,372.1z"/>
	<path id="XMLID_28_" class="st1" d="M-1516.8,386.7c4.3-4.2,18.2-15.2,46.6-19.3c1.1-0.2,2.1,0.7,2.1,1.8v0.5
		c0,0.9-0.6,1.6-1.4,1.8c-6.2,1.4-30.6,7.7-43.3,19.2c-0.8,0.7-1.9,0.7-2.7,0l-1.2-1C-1517.6,389-1517.6,387.6-1516.8,386.7z"/>
	<path id="XMLID_54_" class="st1" d="M-1525.1,390.3c-13.5-6.2-30.3,1.6-37.5,17.4c-7.2,15.8-2.2,33.6,11.3,39.8
		c13.5,6.2,30.3-1.6,37.5-17.4C-1506.6,414.3-1511.6,396.5-1525.1,390.3z M-1549.5,408c0,0-1-8.8,11.9-10.9l-2.2,1.3
		c-3.6,2.1-6.7,5.1-9,8.6L-1549.5,408z"/>
	<path id="XMLID_56_" class="st1" d="M-1453,404.3c-6-16.3-22.2-25.3-36.1-20.2c-13.9,5.2-20.2,22.6-14.2,38.9
		c6.1,16.3,22.2,25.3,36.1,20.2C-1453.3,438-1446.9,420.6-1453,404.3z M-1495.6,412.2c0,0-6.2-6.2,0-15l-0.6,3.5
		c-0.5,2.7-0.5,5.4,0,8.1L-1495.6,412.2z"/>
</g>
<circle id="XMLID_7_" class="st0" cx="-1342.9" cy="677" r="84.9"/>
<g id="XMLID_1_">
	<path id="XMLID_21_" class="st1" d="M-897.3,536.8c0,0-47.3-23.6,0-75.7c0,0,35,38.8,5.7,69c0,0-10.3-24.6-7.5-37.8
		C-899.1,492.4-908.7,497.1-897.3,536.8z"/>
	<path id="XMLID_26_" class="st1" d="M-885.2,538.9c0,0,9.5-71.9,95.5-12.3c0,0-30.5,53.9-85.1,26.5c0,0-10.4,28.8-18,22.9
		c0,0-18.7-3.3,21.5-37.5c0,0,13.9-14,46.5-13.8C-824.7,524.7-860.6,510.6-885.2,538.9z"/>
</g>
<circle id="XMLID_9_" class="st0" cx="-977.5" cy="702" r="95"/>
<path id="XMLID_20_" class="st1" d="M-1232.2,532.7c0-3.7-3-6.7-6.7-6.7s-6.7,3-6.7,6.7l0.1,34.6l20.5,24.4V602h20.5v-20.1
	c0-1.7-0.5-3.3-1.5-4.6c-2.9-4.2-10.1-13.8-21-24.4c-1.4-1.3-3.3-2-5.3-1.7c-1.4,0.2-2.9,1-3.4,3.1c-0.6,2,0.1,4.2,1.6,5.7
	l13.5,13.5c0.5,0.5,0.9,1,1.2,1.6c0.7,1.3,1.2,3.3-2.7,2.5c-0.7-0.1-1.3-0.4-1.7-0.9l-13.7-12.9c-0.6-0.6-1.1-1.2-1.5-2
	c-1.6-3.3-4.6-12.1,6-15.3L-1232.2,532.7z"/>
<path id="XMLID_29_" class="st1" d="M-1156.9,532.7c0-3.7,3-6.7,6.7-6.7c3.7,0,6.7,3,6.7,6.7l-0.1,34.6l-20.5,24.4V602h-20.5v-20.1
	c0-1.7,0.5-3.3,1.5-4.6c2.9-4.2,10.1-13.8,21-24.4c1.4-1.3,3.3-2,5.3-1.7c1.4,0.2,2.9,1,3.4,3.1c0.6,2-0.1,4.2-1.6,5.7l-13.5,13.5
	c-0.5,0.5-0.9,1-1.2,1.6c-0.7,1.3-1.2,3.3,2.7,2.5c0.7-0.1,1.3-0.4,1.7-0.9l13.7-12.9c0.6-0.6,1.1-1.2,1.5-2
	c1.6-3.3,4.6-12.1-6-15.3L-1156.9,532.7z"/>
<polygon id="XMLID_22_" class="st1" points="-1194.5,540.3 -1215.8,519.1 -1194.5,511.2 -1173.3,519.1 "/>
<polygon id="XMLID_30_" class="st1" points="-1196.6,572.2 -1216.4,556.7 -1216.4,523.7 -1196.6,544.1 "/>
<polygon id="XMLID_32_" class="st1" points="-1192.7,572.2 -1172.9,556.7 -1172.9,524.4 -1192.7,544.1 "/>
<g>
	<path class="st1" d="M-1009.4,639.1v62.2c0,0-0.9,3.7,5.5,4.6c3.3,0.5,6.5,0.5,8.9,0.3c2.2-0.1,3.9-1.9,3.9-4.1v-63.5
		c0-1.5-0.9-2.8-2.3-3.3c-2.9-1-8.1-2.4-12.8-0.8C-1008.1,635.2-1009.4,637.1-1009.4,639.1z"/>
	<path class="st1" d="M-986.4,632.2v68.7c0,0-0.9,4,5.5,5.1c3.3,0.5,6.5,0.5,8.9,0.4c2.2-0.1,3.9-2.1,3.9-4.5v-70.2
		c0-1.6-0.9-3.1-2.3-3.6c-2.9-1.1-8.1-2.6-12.8-0.8C-985.1,627.9-986.4,629.9-986.4,632.2z"/>
	<path class="st1" d="M-963.3,640.3v62.2c0,0-0.9,3.7,5.5,4.6c3.3,0.5,6.5,0.5,8.9,0.3c2.2-0.1,3.9-1.9,3.9-4.1v-63.5
		c0-1.5-0.9-2.8-2.3-3.3c-2.9-1-8.1-2.4-12.8-0.8C-962,636.4-963.3,638.2-963.3,640.3z"/>
	<path class="st1" d="M-1009.4,775.2V713c0,0-0.9-3.7,5.5-4.6c3.3-0.5,6.5-0.5,8.9-0.3c2.2,0.1,3.9,1.9,3.9,4.1v63.5
		c0,1.5-0.9,2.8-2.3,3.3c-2.9,1-8.1,2.4-12.8,0.8C-1008.1,779.1-1009.4,777.2-1009.4,775.2z"/>
	<path class="st1" d="M-986.4,781.8v-68.7c0,0-0.9-4,5.5-5.1c3.3-0.5,6.5-0.5,8.9-0.4c2.2,0.1,3.9,2.1,3.9,4.5v70.2
		c0,1.6-0.9,3.1-2.3,3.6c-2.9,1.1-8.1,2.6-12.8,0.8C-985.1,786.1-986.4,784.1-986.4,781.8z"/>
	<path class="st1" d="M-963.3,776.3v-62.2c0,0-0.9-3.7,5.5-4.6c3.3-0.5,6.5-0.5,8.9-0.3c2.2,0.1,3.9,1.9,3.9,4.1v63.5
		c0,1.5-0.9,2.8-2.3,3.3c-2.9,1-8.1,2.4-12.8,0.8C-962,780.2-963.3,778.4-963.3,776.3z"/>
	<path class="st1" d="M-942.2,706.4c0,0-6.7-17.9,25-26.5C-917.2,679.9-916.3,711-942.2,706.4z"/>
	<path class="st1" d="M-943.3,691.5c0,0-1.8-8,6.6-11.9C-936.7,679.6-936.4,693.6-943.3,691.5z"/>
	<path class="st1" d="M-1011.1,696.3c0,0,1.8-8-6.6-11.9C-1017.7,684.4-1017.9,698.4-1011.1,696.3z"/>
	<path class="st1" d="M-1012.4,707.7c0,0,4.7-12.4-17.4-18.5C-1029.8,689.2-1030.4,710.9-1012.4,707.7z"/>
</g>
<text transform="matrix(1 0 0 1 -537.7568 429)"><tspan x="0" y="0" class="st1 st2 st3">SR</tspan><tspan x="1.3" y="51.6" class="st1 st4 st5">TRADING</tspan></text>
</svg>
