<?xml version="1.0" encoding="utf-8"?>
<!-- Generator: Adobe Illustrator 19.0.0, SVG Export Plug-In . SVG Version: 6.00 Build 0)  -->
<svg version="1.1" id="Layer_1" xmlns="http://www.w3.org/2000/svg" xmlns:xlink="http://www.w3.org/1999/xlink" x="0px" y="0px"
	 viewBox="-539 301 200 200" style="enable-background:new -539 301 200 200;" xml:space="preserve">
<style type="text/css">
	.st0{fill:none;stroke:#8CC63F;stroke-width:3;stroke-miterlimit:10;}
	.st1{fill:#8CC63F;}
	.st2{font-family:'SegoeUI-Bold';}
	.st3{font-size:48px;}
	.st4{letter-spacing:4;}
</style>
<g id="XMLID_18_">
	<circle id="XMLID_10_" class="st0" cx="-170.1" cy="376" r="84.9"/>
	<path id="XMLID_25_" class="st1" d="M-164.5,363.7l5.4-2.3c0.8-0.3,1.3-1,1.3-1.9c0.4-5.1,0.3-23.1-17.8-26.7
		c0,0-3.4,18.4,9.8,30.7C-165.4,363.8-164.9,363.9-164.5,363.7z"/>
	<path id="XMLID_44_" class="st1" d="M-169.5,363.9c-3.4-4.3-16.9-18.8-41.8-14.5c0,0,4.1,23.1,32.5,22.4c0.9,0,1.7-0.3,2.4-0.8
		l6.6-5C-169.1,365.5-169,364.5-169.5,363.9z"/>
	<path id="XMLID_28_" class="st1" d="M-174.8,374.7c3.2-3.1,13.6-11.3,34.6-14.3c0.8-0.1,1.6,0.5,1.6,1.4v0.4c0,0.6-0.4,1.2-1.1,1.3
		c-4.6,1.1-22.8,5.7-32.2,14.3c-0.6,0.5-1.4,0.5-2,0l-0.9-0.8C-175.5,376.4-175.5,375.4-174.8,374.7z"/>
	<path id="XMLID_54_" class="st1" d="M-181,377.4c-10-4.6-22.5,1.2-27.9,12.9c-5.4,11.7-1.6,25,8.4,29.6s22.5-1.2,27.9-12.9
		C-167.3,395.2-171,382-181,377.4z M-199.1,390.6c0,0-0.8-6.5,8.9-8.1l-1.7,1c-2.7,1.6-5,3.8-6.7,6.4L-199.1,390.6z"/>
	<path id="XMLID_56_" class="st1" d="M-127.4,387.8c-4.5-12.1-16.5-18.8-26.8-15c-10.3,3.8-15.1,16.8-10.6,28.9
		c4.5,12.1,16.5,18.8,26.8,15C-127.6,412.8-122.9,399.9-127.4,387.8z M-159.1,393.6c0,0-4.6-4.6,0-11.2l-0.4,2.6c-0.3,2-0.3,4,0,6
		L-159.1,393.6z"/>
</g>
<g id="XMLID_34_">
	<circle id="XMLID_7_" class="st0" cx="-803.9" cy="376" r="84.9"/>
	<path id="XMLID_21_" class="st1" d="M-829.6,389.8c0,0-39.1-19.5,0-62.5c0,0,28.9,32,4.7,57c0,0-8.5-20.3-6.2-31.2
		C-831.1,353.1-839,357-829.6,389.8z"/>
	<path id="XMLID_26_" class="st1" d="M-819.6,391.6c0,0,7.8-59.4,78.9-10.2c0,0-25.2,44.5-70.3,21.9c0,0-8.6,23.8-14.8,18.9
		c0,0-15.4-2.7,17.8-31c0,0,11.5-11.6,38.5-11.4C-769.6,379.8-799.3,368.1-819.6,391.6z"/>
</g>
<circle id="XMLID_9_" class="st0" cx="-439" cy="401" r="95"/>
<text transform="matrix(1 0 0 1 -507 418.7639)" class="st1 st2 st3 st4">CFTRI</text>
</svg>
